<svg width="130" height="130" viewBox="0 0 130 130" fill="none" xmlns="http://www.w3.org/2000/svg">
<path d="M8.76682 129H5C2.79086 129 1 127.209 1 125V121.508C1 119.561 1.6316 117.666 2.8 116.108L30.2263 79.5398C31.6908 77.5871 33.716 76.1275 36.0316 75.3556L54.4968 69.2005C58.7862 67.7707 63.0558 71.4191 62.3125 75.879L59.5596 92.3966C59.0143 95.6683 57.1391 98.5685 54.3793 100.408L13.7591 127.488C12.2807 128.474 10.5436 129 8.76682 129Z" fill="white" stroke="black" stroke-width="2"/>
<path d="M1.00036 8.76682L1.00036 5C1.00036 2.79086 2.79122 0.999997 5.00036 0.999997L8.76718 0.999998C10.544 0.999998 12.2811 1.52594 13.7595 2.51155L54.3796 29.5916C57.1395 31.4315 59.0146 34.3317 59.5599 37.6035L62.5702 55.6651C63.247 59.726 59.7264 63.2467 55.6655 62.5699L37.6038 59.5596C34.332 59.0143 31.4319 57.1391 29.592 54.3793L2.51191 13.7591C1.5263 12.2807 1.00036 10.5436 1.00036 8.76682Z" fill="white" stroke="black" stroke-width="2"/>
<path d="M121.233 0.999992L125 0.999992C127.209 0.999992 129 2.79086 129 4.99999L129 8.76681C129 10.5436 128.474 12.2807 127.488 13.7591L100.408 54.3793C98.5685 57.1391 95.6683 59.0143 92.3965 59.5596L74.3349 62.5698C70.274 63.2467 66.7533 59.726 67.4301 55.6651L70.4404 37.6034C70.9857 34.3317 72.8609 31.4315 75.6207 29.5916L116.241 2.51154C117.719 1.52594 119.456 0.999992 121.233 0.999992Z" fill="white" stroke="black" stroke-width="2"/>
<path d="M129 121.233L129 125C129 127.209 127.209 129 125 129L121.233 129C119.456 129 117.719 128.474 116.241 127.488L75.6204 100.408C72.8605 98.5685 70.9854 95.6683 70.4401 92.3965L67.4298 74.3349C66.753 70.274 70.2736 66.7533 74.3346 67.4301L92.3962 70.4404C95.668 70.9857 98.5681 72.8609 100.408 75.6207L127.488 116.241C128.474 117.719 129 119.456 129 121.233Z" fill="white" stroke="black" stroke-width="2"/>
</svg>
