<svg width="996" height="140" viewBox="0 0 996 140" fill="none" xmlns="http://www.w3.org/2000/svg">
<path d="M108 0H144V12H108V0Z" fill="white"/>
<path d="M156 0H192V12H156V0Z" fill="white"/>
<path d="M114 80H138V92H114V80Z" fill="white"/>
<path d="M114 96H138V108H114V96Z" fill="white"/>
<path d="M162 96H186V108H162V96Z" fill="white"/>
<path d="M162 80H186V92H162V80Z" fill="white"/>
<path d="M162 64H186V76H162V64Z" fill="white"/>
<path d="M162 48H186V60H162V48Z" fill="white"/>
<path d="M162 32H186V44H162V32Z" fill="white"/>
<path d="M162 16H186V28H162V16Z" fill="white"/>
<path d="M114 112H162V124H114V112Z" fill="white"/>
<path d="M114 64H138V76H114V64Z" fill="white"/>
<path d="M114 48H138V60H114V48Z" fill="white"/>
<path d="M114 32H138V44H114V32Z" fill="white"/>
<path d="M114 16H138V28H114V16Z" fill="white"/>
<path d="M202 0H238V12H202V0Z" fill="white"/>
<path d="M214 80H238V92H214V80Z" fill="white"/>
<path d="M258 80H274V92H258V80Z" fill="white"/>
<path d="M214 96H274V108H214V96Z" fill="white"/>
<path d="M214 64H238V76H214V64Z" fill="white"/>
<path d="M214 48H238V60H214V48Z" fill="white"/>
<path d="M214 32H238V44H214V32Z" fill="white"/>
<path d="M214 16H238V28H214V16Z" fill="white"/>
<path d="M452 6C452 2.68629 454.686 0 458 0H482C485.314 0 488 2.68629 488 6C488 9.31371 485.314 12 482 12H458C454.686 12 452 9.31371 452 6Z" fill="white"/>
<path d="M500 6C500 2.68629 502.686 0 506 0H530C533.314 0 536 2.68629 536 6C536 9.31371 533.314 12 530 12H506C502.686 12 500 9.31371 500 6Z" fill="white"/>
<path d="M506 38C506 34.6863 508.686 32 512 32H524C527.314 32 530 34.6863 530 38C530 41.3137 527.314 44 524 44H512C508.686 44 506 41.3137 506 38Z" fill="white"/>
<path d="M506 22C506 18.6863 508.686 16 512 16H524C527.314 16 530 18.6863 530 22C530 25.3137 527.314 28 524 28H512C508.686 28 506 25.3137 506 22Z" fill="white"/>
<path d="M458 38C458 34.6863 460.686 32 464 32H476C479.314 32 482 34.6863 482 38C482 41.3137 479.314 44 476 44H464C460.686 44 458 41.3137 458 38Z" fill="white"/>
<path d="M458 22C458 18.6863 460.686 16 464 16H476C479.314 16 482 18.6863 482 22C482 25.3137 479.314 28 476 28H464C460.686 28 458 25.3137 458 22Z" fill="white"/>
<path d="M452 102C452 105.314 454.686 108 458 108H482C485.314 108 488 105.314 488 102C488 98.6863 485.314 96 482 96H458C454.686 96 452 98.6863 452 102Z" fill="white"/>
<path d="M500 102C500 105.314 502.686 108 506 108H530C533.314 108 536 105.314 536 102C536 98.6863 533.314 96 530 96H506C502.686 96 500 98.6863 500 102Z" fill="white"/>
<path d="M506 70C506 73.3137 508.686 76 512 76H524C527.314 76 530 73.3137 530 70C530 66.6863 527.314 64 524 64H512C508.686 64 506 66.6863 506 70Z" fill="white"/>
<path d="M506 86C506 89.3137 508.686 92 512 92H524C527.314 92 530 89.3137 530 86C530 82.6863 527.314 80 524 80H512C508.686 80 506 82.6863 506 86Z" fill="white"/>
<path d="M458 70C458 73.3137 460.686 76 464 76H476C479.314 76 482 73.3137 482 70C482 66.6863 479.314 64 476 64H464C460.686 64 458 66.6863 458 70Z" fill="white"/>
<path d="M458 86C458 89.3137 460.686 92 464 92H476C479.314 92 482 89.3137 482 86C482 82.6863 479.314 80 476 80H464C460.686 80 458 82.6863 458 86Z" fill="white"/>
<path d="M458 54C458 50.6863 460.686 48 464 48H524C527.314 48 530 50.6863 530 54C530 57.3137 527.314 60 524 60H464C460.686 60 458 57.3137 458 54Z" fill="white"/>
<path d="M646 38C646 34.6863 648.686 32 652 32H664C667.314 32 670 34.6863 670 38C670 41.3137 667.314 44 664 44H652C648.686 44 646 41.3137 646 38Z" fill="white"/>
<path d="M694 38C694 34.6863 696.686 32 700 32H712C715.314 32 718 34.6863 718 38C718 41.3137 715.314 44 712 44H700C696.686 44 694 41.3137 694 38Z" fill="white"/>
<path d="M694 22C694 18.6863 696.686 16 700 16H712C715.314 16 718 18.6863 718 22C718 25.3137 715.314 28 712 28H700C696.686 28 694 25.3137 694 22Z" fill="white"/>
<path d="M646 22C646 18.6863 648.686 16 652 16H664C667.314 16 670 18.6863 670 22C670 25.3137 667.314 28 664 28H652C648.686 28 646 25.3137 646 22Z" fill="white"/>
<path d="M640 102C640 105.314 642.686 108 646 108H670C673.314 108 676 105.314 676 102C676 98.6863 673.314 96 670 96H646C642.686 96 640 98.6863 640 102Z" fill="white"/>
<path d="M646 70C646 73.3137 648.686 76 652 76H664C667.314 76 670 73.3137 670 70C670 66.6863 667.314 64 664 64H652C648.686 64 646 66.6863 646 70Z" fill="white"/>
<path d="M646 86C646 89.3137 648.686 92 652 92H664C667.314 92 670 89.3137 670 86C670 82.6863 667.314 80 664 80H652C648.686 80 646 82.6863 646 86Z" fill="white"/>
<path d="M646 54C646 50.6863 648.686 48 652 48H700C703.314 48 706 50.6863 706 54C706 57.3137 703.314 60 700 60H652C648.686 60 646 57.3137 646 54Z" fill="white"/>
<path d="M640 6C640 2.68629 642.686 0 646 0H700C703.314 0 706 2.68629 706 6C706 9.31371 703.314 12 700 12H646C642.686 12 640 9.31371 640 6Z" fill="white"/>
<path d="M818 38C818 34.6863 820.686 32 824 32H836C839.314 32 842 34.6863 842 38C842 41.3137 839.314 44 836 44H824C820.686 44 818 41.3137 818 38Z" fill="white"/>
<path d="M866 38C866 34.6863 868.686 32 872 32H884C887.314 32 890 34.6863 890 38C890 41.3137 887.314 44 884 44H872C868.686 44 866 41.3137 866 38Z" fill="white"/>
<path d="M866 22C866 18.6863 868.686 16 872 16H884C887.314 16 890 18.6863 890 22C890 25.3137 887.314 28 884 28H872C868.686 28 866 25.3137 866 22Z" fill="white"/>
<path d="M818 22C818 18.6863 820.686 16 824 16H836C839.314 16 842 18.6863 842 22C842 25.3137 839.314 28 836 28H824C820.686 28 818 25.3137 818 22Z" fill="white"/>
<path d="M812 118C812 121.314 814.686 124 818 124H842C845.314 124 848 121.314 848 118C848 114.686 845.314 112 842 112H818C814.686 112 812 114.686 812 118Z" fill="white"/>
<path d="M818 70C818 73.3137 820.686 76 824 76H860C863.314 76 866 73.3137 866 70C866 66.6863 863.314 64 860 64H824C820.686 64 818 66.6863 818 70Z" fill="white"/>
<path d="M818 86C818 89.3137 820.686 92 824 92H836C839.314 92 842 89.3137 842 86C842 82.6863 839.314 80 836 80H824C820.686 80 818 82.6863 818 86Z" fill="white"/>
<path d="M818 102C818 105.314 820.686 108 824 108H836C839.314 108 842 105.314 842 102C842 98.6863 839.314 96 836 96H824C820.686 96 818 98.6863 818 102Z" fill="white"/>
<path d="M866 102C866 105.314 868.686 108 872 108H884C887.314 108 890 105.314 890 102C890 98.6863 887.314 96 884 96H872C868.686 96 866 98.6863 866 102Z" fill="white"/>
<path d="M878 118C878 121.314 880.686 124 884 124H896C899.314 124 902 121.314 902 118C902 114.686 899.314 112 896 112H884C880.686 112 878 114.686 878 118Z" fill="white"/>
<path d="M854 86C854 89.3137 856.686 92 860 92H872C875.314 92 878 89.3137 878 86C878 82.6863 875.314 80 872 80H860C856.686 80 854 82.6863 854 86Z" fill="white"/>
<path d="M818 54C818 50.6863 820.686 48 824 48H872C875.314 48 878 50.6863 878 54C878 57.3137 875.314 60 872 60H824C820.686 60 818 57.3137 818 54Z" fill="white"/>
<path d="M812 6C812 2.68629 814.686 0 818 0H872C875.314 0 878 2.68629 878 6C878 9.31371 875.314 12 872 12H818C814.686 12 812 9.31371 812 6Z" fill="white"/>
<path d="M600 38C600 34.6863 602.686 32 606 32H618C621.314 32 624 34.6863 624 38C624 41.3137 621.314 44 618 44H606C602.686 44 600 41.3137 600 38Z" fill="white"/>
<path d="M552 38C552 34.6863 554.686 32 558 32H570C573.314 32 576 34.6863 576 38C576 41.3137 573.314 44 570 44H558C554.686 44 552 41.3137 552 38Z" fill="white"/>
<path d="M576 6C576 2.68629 578.686 0 582 0H594C597.314 0 600 2.68629 600 6C600 9.31371 597.314 12 594 12H582C578.686 12 576 9.31371 576 6Z" fill="white"/>
<path d="M546 102C546 105.314 548.686 108 552 108H576C579.314 108 582 105.314 582 102C582 98.6863 579.314 96 576 96H552C548.686 96 546 98.6863 546 102Z" fill="white"/>
<path d="M594 102C594 105.314 596.686 108 600 108H624C627.314 108 630 105.314 630 102C630 98.6863 627.314 96 624 96H600C596.686 96 594 98.6863 594 102Z" fill="white"/>
<path d="M600 70C600 73.3137 602.686 76 606 76H618C621.314 76 624 73.3137 624 70C624 66.6863 621.314 64 618 64H606C602.686 64 600 66.6863 600 70Z" fill="white"/>
<path d="M600 86C600 89.3137 602.686 92 606 92H618C621.314 92 624 89.3137 624 86C624 82.6863 621.314 80 618 80H606C602.686 80 600 82.6863 600 86Z" fill="white"/>
<path d="M552 70C552 73.3137 554.686 76 558 76H570C573.314 76 576 73.3137 576 70C576 66.6863 573.314 64 570 64H558C554.686 64 552 66.6863 552 70Z" fill="white"/>
<path d="M552 86C552 89.3137 554.686 92 558 92H570C573.314 92 576 89.3137 576 86C576 82.6863 573.314 80 570 80H558C554.686 80 552 82.6863 552 86Z" fill="white"/>
<path d="M552 54C552 50.6863 554.686 48 558 48H618C621.314 48 624 50.6863 624 54C624 57.3137 621.314 60 618 60H558C554.686 60 552 57.3137 552 54Z" fill="white"/>
<path d="M564 22C564 18.6863 566.686 16 570 16H606C609.314 16 612 18.6863 612 22C612 25.3137 609.314 28 606 28H570C566.686 28 564 25.3137 564 22Z" fill="white"/>
<path d="M368 54C368 50.6863 370.686 48 374 48H422C425.314 48 428 50.6863 428 54C428 57.3137 425.314 60 422 60H374C370.686 60 368 57.3137 368 54Z" fill="white"/>
<path d="M368 102C368 98.6863 370.686 96 374 96H422C425.314 96 428 98.6863 428 102C428 105.314 425.314 108 422 108H374C370.686 108 368 105.314 368 102Z" fill="white"/>
<path d="M368 6C368 2.68629 370.686 0 374 0H422C425.314 0 428 2.68629 428 6C428 9.31371 425.314 12 422 12H374C370.686 12 368 9.31371 368 6Z" fill="white"/>
<path d="M356 38C356 34.6863 358.686 32 362 32H386C389.314 32 392 34.6863 392 38C392 41.3137 389.314 44 386 44H362C358.686 44 356 41.3137 356 38Z" fill="white"/>
<path d="M356 22C356 18.6863 358.686 16 362 16H374C377.314 16 380 18.6863 380 22C380 25.3137 377.314 28 374 28H362C358.686 28 356 25.3137 356 22Z" fill="white"/>
<path d="M416 86C416 82.6863 418.686 80 422 80H434C437.314 80 440 82.6863 440 86C440 89.3137 437.314 92 434 92H422C418.686 92 416 89.3137 416 86Z" fill="white"/>
<path d="M356 86C356 82.6863 358.686 80 362 80H374C377.314 80 380 82.6863 380 86C380 89.3137 377.314 92 374 92H362C358.686 92 356 89.3137 356 86Z" fill="white"/>
<path d="M404 70C404 66.6863 406.686 64 410 64H434C437.314 64 440 66.6863 440 70C440 73.3137 437.314 76 434 76H410C406.686 76 404 73.3137 404 70Z" fill="white"/>
<path d="M416 22C416 18.6863 418.686 16 422 16H434C437.314 16 440 18.6863 440 22C440 25.3137 437.314 28 434 28H422C418.686 28 416 25.3137 416 22Z" fill="white"/>
<path d="M274 0H310V12H274V0Z" fill="white"/>
<path d="M286 80H310V92H286V80Z" fill="white"/>
<path d="M330 80H346V92H330V80Z" fill="white"/>
<path d="M286 96H346V108H286V96Z" fill="white"/>
<path d="M286 64H310V76H286V64Z" fill="white"/>
<path d="M286 48H310V60H286V48Z" fill="white"/>
<path d="M286 32H310V44H286V32Z" fill="white"/>
<path d="M286 16H310V28H286V16Z" fill="white"/>
<path d="M0 0H36V12H0V0Z" fill="white"/>
<path d="M60 0H96V12H60V0Z" fill="white"/>
<path d="M12 32H48V44H12V32Z" fill="white"/>
<path d="M12 16H36V28H12V16Z" fill="white"/>
<path d="M12 48H60V60H12V48Z" fill="white"/>
<path d="M12 80H36V92H12V80Z" fill="white"/>
<path d="M12 64H36V76H12V64Z" fill="white"/>
<path d="M12 96H36V108H12V96Z" fill="white"/>
<path d="M12 112H36V124H12V112Z" fill="white"/>
<path d="M70 112H86V124H70V112Z" fill="white"/>
<path d="M70 96H86V108H70V96Z" fill="white"/>
<path d="M62 80H86V92H62V80Z" fill="white"/>
<path d="M50 64H86V76H50V64Z" fill="white"/>
<path d="M70 32H86V44H70V32Z" fill="white"/>
<path d="M70 48H86V60H70V48Z" fill="white"/>
<path d="M70 16H86V28H70V16Z" fill="white"/>
<path d="M0 128H48V140H0V128Z" fill="white"/>
<path d="M734 38C734 34.6863 736.686 32 740 32H752C755.314 32 758 34.6863 758 38C758 41.3137 755.314 44 752 44H740C736.686 44 734 41.3137 734 38Z" fill="white"/>
<path d="M734 22C734 18.6863 736.686 16 740 16H752C755.314 16 758 18.6863 758 22C758 25.3137 755.314 28 752 28H740C736.686 28 734 25.3137 734 22Z" fill="white"/>
<path d="M734 70C734 73.3137 736.686 76 740 76H752C755.314 76 758 73.3137 758 70C758 66.6863 755.314 64 752 64H740C736.686 64 734 66.6863 734 70Z" fill="white"/>
<path d="M734 86C734 89.3137 736.686 92 740 92H752C755.314 92 758 89.3137 758 86C758 82.6863 755.314 80 752 80H740C736.686 80 734 82.6863 734 86Z" fill="white"/>
<path d="M728 102C728 105.314 730.686 108 734 108H794C797.314 108 800 105.314 800 102C800 98.6863 797.314 96 794 96H734C730.686 96 728 98.6863 728 102Z" fill="white"/>
<path d="M728 6C728 9.31371 730.686 12 734 12H794C797.314 12 800 9.31371 800 6C800 2.68629 797.314 0 794 0H734C730.686 0 728 2.68629 728 6Z" fill="white"/>
<path d="M728 54C728 50.6863 730.686 48 734 48H770C773.314 48 776 50.6863 776 54C776 57.3137 773.314 60 770 60H734C730.686 60 728 57.3137 728 54Z" fill="white"/>
<path d="M784 22C784 18.6863 786.686 16 790 16H794C797.314 16 800 18.6863 800 22C800 25.3137 797.314 28 794 28H790C786.686 28 784 25.3137 784 22Z" fill="white"/>
<path d="M784 86C784 82.6863 786.686 80 790 80H794C797.314 80 800 82.6863 800 86C800 89.3137 797.314 92 794 92H790C786.686 92 784 89.3137 784 86Z" fill="white"/>
<path d="M930 134C930 137.314 932.686 140 936 140H972C975.314 140 978 137.314 978 134C978 130.686 975.314 128 972 128H936C932.686 128 930 130.686 930 134Z" fill="white"/>
<path d="M924 70C924 66.6863 926.686 64 930 64H978C981.314 64 984 66.6863 984 70C984 73.3137 981.314 76 978 76H930C926.686 76 924 73.3137 924 70Z" fill="white"/>
<path d="M912 118C912 114.686 914.686 112 918 112H942C945.314 112 948 114.686 948 118C948 121.314 945.314 124 942 124H918C914.686 124 912 121.314 912 118Z" fill="white"/>
<path d="M972 118C972 114.686 974.686 112 978 112H990C993.314 112 996 114.686 996 118C996 121.314 993.314 124 990 124H978C974.686 124 972 121.314 972 118Z" fill="white"/>
<path d="M924 6C924 2.68629 926.686 0 930 0H978C981.314 0 984 2.68629 984 6C984 9.31371 981.314 12 978 12H930C926.686 12 924 9.31371 924 6Z" fill="white"/>
<path d="M912 38C912 34.6863 914.686 32 918 32H930C933.314 32 936 34.6863 936 38C936 41.3137 933.314 44 930 44H918C914.686 44 912 41.3137 912 38Z" fill="white"/>
<path d="M912 54C912 50.6863 914.686 48 918 48H942C945.314 48 948 50.6863 948 54C948 57.3137 945.314 60 942 60H918C914.686 60 912 57.3137 912 54Z" fill="white"/>
<path d="M960 86C960 82.6863 962.686 80 966 80H990C993.314 80 996 82.6863 996 86C996 89.3137 993.314 92 990 92H966C962.686 92 960 89.3137 960 86Z" fill="white"/>
<path d="M912 22C912 18.6863 914.686 16 918 16H930C933.314 16 936 18.6863 936 22C936 25.3137 933.314 28 930 28H918C914.686 28 912 25.3137 912 22Z" fill="white"/>
<path d="M972 102C972 98.6863 974.686 96 978 96H990C993.314 96 996 98.6863 996 102C996 105.314 993.314 108 990 108H978C974.686 108 972 105.314 972 102Z" fill="white"/>
<path d="M960 22C960 18.6863 962.686 16 966 16H990C993.314 16 996 18.6863 996 22C996 25.3137 993.314 28 990 28H966C962.686 28 960 25.3137 960 22Z" fill="white"/>
<path d="M912 102C912 98.6863 914.686 96 918 96H922C925.314 96 928 98.6863 928 102C928 105.314 925.314 108 922 108H918C914.686 108 912 105.314 912 102Z" fill="white"/>
<path d="M980 38C980 34.6863 982.686 32 986 32H990C993.314 32 996 34.6863 996 38C996 41.3137 993.314 44 990 44H986C982.686 44 980 41.3137 980 38Z" fill="white"/>
</svg>
